<svg width="234" height="49" viewBox="0 0 234 49" xmlns="http://www.w3.org/2000/svg"> <path d="m125.64 23.176c5.634 0 9.462 4.3582 9.462 10.843v12.066c0 0.159-0.159 0.3193-0.32 0.3193h-5.528c-0.159 0-0.319-0.1589-0.319-0.3193v-12.013c0-2.4977-1.222-5.209-4.677-5.209h-0.107c-2.605 0.0534-4.837 2.3921-4.837 5.0486v12.172c0 0.159-0.159 0.3193-0.319 0.3193h-5.475c-0.159 0-0.319-0.1589-0.319-0.3193v-22.322c0-0.1589 0.159-0.3192 0.319-0.3192h5.315c0.159 0 0.319 0.1589 0.319 0.3192v1.9675c2.022-1.7551 4.095-2.5525 6.486-2.5525zm84.247 19.188c-0.107 0.1069-0.053 0.3193 0.053 0.4247 3.295 3.295 6.856 3.7212 9.939 3.7212 4.359 0 7.601-1.6482 8.983-4.5706 0.425-0.9028 0.638-1.8605 0.638-2.8703 0-5.8995-5.103-6.9627-9.514-7.2285-3.509-0.2123-3.509-1.4344-3.509-1.8605 0-1.4879 2.392-1.6482 3.402-1.6482 1.967 0 3.455 0.4781 4.677 1.5413 0.107 0.1069 0.32 0.1069 0.426-0.0534l3.136-3.6143c0.106-0.1069 0.106-0.3192-0.053-0.4247-2.285-1.914-4.731-2.7114-8.292-2.7114-2.285 0-4.518 0.5851-6.165 1.5413-2.126 1.2756-3.243 3.1896-3.243 5.5283 0 4.0924 3.243 6.5914 9.196 7.0161 3.348 0.2124 3.773 1.1701 3.773 2.0195 0 1.2221-1.648 1.8606-3.241 1.8606h-0.161c-2.604-0.0535-5.102-1.0098-6.75-2.5511-0.159-0.1069-0.371-0.1069-0.478 0.0534l-2.817 3.8266zm-55.544-3.7731c0.903-1.0632 1.329-2.5511 1.329-4.1459 0-2.8703-1.754-5.8995-6.006-5.8995-3.509 0-5.848 2.3922-5.848 5.953s2.339 6.0064 5.848 6.0064c1.807-0.0014 3.614-0.6919 4.677-1.914zm1.169-14.883c0-0.1589 0.16-0.3192 0.319-0.3192h5.475c0.159 0 0.319 0.1589 0.319 0.3192v22.377c0 0.159-0.16 0.3193-0.319 0.3193h-5.475c-0.159 0-0.319-0.1589-0.319-0.3193v-1.7016c-1.913 1.7537-4.198 1.8071-6.166 1.8606h-0.319c-3.295 0-6.058-1.0098-8.079-2.9772-2.125-2.0729-3.188-5.1021-3.188-8.7164 0-7.0161 4.465-11.535 11.427-11.535h0.106c2.18 0 4.465 0.2123 6.272 1.7016l-0.053-1.0097zm-68.087-5.8461v-5.3693c0-0.2124-0.159-0.3727-0.3727-0.3727h-19.932c-0.2123 0-0.3727 0.1589-0.3727 0.3727v33.486c0 0.2123 0.1589 0.3712 0.3727 0.3712h5.3679c0.2124 0 0.3727-0.1589 0.3727-0.3712v-13.66c0-0.2124 0.1589-0.3727 0.3727-0.3727h10.045c0.2124 0 0.3727-0.1589 0.3727-0.3727v-5.4213c0-0.2124-0.1589-0.3727-0.3727-0.3727h-10.045c-0.2124 0-0.3727-0.1589-0.3727-0.3727v-6.7503c0-0.2124 0.1589-0.3727 0.3727-0.3727h13.766c0.2644 0.0028 0.4248-0.2095 0.4248-0.4219zm117.2 21.366c-0.106-0.1068-0.32-0.1068-0.425 0-1.063 0.9029-2.446 1.3824-3.775 1.3824-3.348 0-5.687-2.3921-5.687-5.846s2.339-5.8461 5.687-5.8461c1.329 0 2.658 0.4782 3.775 1.3824 0.105 0.1069 0.319 0.1069 0.425 0l3.56-3.7211c0.107-0.1069 0.107-0.3192 0-0.4247-2.285-2.1798-4.624-3.0827-7.813-3.0827-7.175 0-11.799 4.624-11.799 11.8 0 7.175 4.624 11.799 11.799 11.799 3.189 0 5.528-0.9029 7.813-3.0827 0.107-0.1068 0.107-0.3192 0-0.4247l-3.56-3.9363zm-28.597 7.1765c0.161 0 0.32-0.1589 0.32-0.3193v-4.9966c0-0.1589-0.159-0.3192-0.32-0.3192h-2.71c-1.594-0.0535-2.338-0.8509-2.338-2.5511v-8.5575h5.048c0.161 0 0.32-0.1589 0.32-0.3192v-5.5817c0-0.1589-0.159-0.3192-0.32-0.3192h-4.995v-4.8363c0-0.159-0.16-0.3193-0.319-0.3193h-5.528c-0.159 0-0.32 0.1589-0.32 0.3193v19.612c0 5.209 2.924 8.1848 8.08 8.1848l3.082 0.0028zm-73.456-7.8135c0.904-1.0632 1.329-2.5511 1.329-4.1459 0-2.8703-1.754-5.8995-6.0063-5.8995-3.5088 0-5.8475 2.3922-5.8475 5.953s2.3387 6.0064 5.8475 6.0064c1.8606-0.0014 3.6673-0.6919 4.6773-1.914zm1.224-14.883c0-0.1589 0.159-0.3192 0.319-0.3192h5.475c0.159 0 0.319 0.1589 0.319 0.3192v22.377c0 0.159-0.159 0.3193-0.319 0.3193h-5.475c-0.159 0-0.319-0.1589-0.319-0.3193v-1.7016c-1.914 1.7537-4.1997 1.8071-6.1657 1.8606h-0.3192c-3.295 0-6.0599-1.0098-8.0793-2.9772-2.1264-2.0729-3.1896-5.1021-3.1896-8.7164-0.0534-7.0161 4.4117-11.587 11.321-11.587h0.1069c2.1798 0 4.465 0.2123 6.272 1.7016l0.054-0.9577zm75.847 22.697h5.528c0.159 0 0.319-0.1589 0.319-0.3193v-22.377c0-0.1589-0.16-0.3192-0.319-0.3192h-5.528c-0.159 0-0.318 0.1589-0.318 0.3192v22.377c0.052 0.159 0.159 0.3193 0.318 0.3193zm6.272-29.766c0-4.5185-6.804-4.5185-6.804 0-0.052 4.4651 6.804 4.4651 6.804 0z" fill="#fff"/> <path d="m57.394 5.6359-5.7406 8.9301c-0.1069 0.1589-0.3727 0.2658-0.5316 0.1589-13.235-6.6434-28.543 5.5817-42.043 2.658-0.10688-0.0535-0.21236-0.1069-0.31924-0.2124 0.05344 0-6.4845-9.9933-8.6643-13.342-0.26579-0.42471 0.05344-1.0097 0.63706-0.9563 1.1686 0.2658 6.2722 1.3824 10.206 1.7002 20.463 1.1166 31.572-11.162 46.402 0.47815 0.1617 0.10688 0.2151 0.37268 0.0548 0.58503zm-16.689 25.566c0.1069 0.0534 0.2124 0 0.3193-0.1069l6.9092-10.789c0.1069-0.1589 0-0.3192-0.1589-0.3727-10.045-3.4553-19.454 3.1896-33.805 3.5608-0.3713 0-0.744 0.4247-0.4782 0.9043l15.467 23.919c0.2124 0.4247 0.744 0.1589 0.6905-0.2124l-3.3484-15.149c-0.0535-0.159 0.0534-0.2658 0.1589-0.3193 1.329-0.3712 10.099-3.347 14.246-1.4344z" fill="#fff"/> <path d="m233.43 20.997c0 1.1166-0.691 2.0195-1.966 2.0195-1.276 0-1.968-0.9043-1.968-2.0195s0.692-2.0195 1.968-2.0195c1.275 0 1.966 0.9029 1.966 2.0195zm-1.966 1.7003c1.063 0 1.647-0.744 1.647-1.7003s-0.584-1.7016-1.647-1.7016-1.648 0.7439-1.648 1.7016 0.585 1.7003 1.648 1.7003zm0.319-1.4345c0.796-0.1069 0.744-1.329-0.16-1.329h-0.956v2.073h0.319v-0.744h0.424l0.638 0.744h0.372v-0.0535l-0.637-0.6905zm-0.16-1.0111c0.531 0 0.531 0.7439 0 0.7439h-0.637v-0.7439h0.637z" fill="#fff"/>
</svg>