<svg width="230" height="62" viewBox="0 0 230 62" xmlns="http://www.w3.org/2000/svg"> <path d="m95.646 32.249h6.3962l3.043-17.859h-4.112l-1.9541 14.363-1.9547-14.363h-4.4412l3.0185 17.859h0.0043zm10.225 0h4.086l0.557-3.5736h3.555l0.557 3.5736h4.391l-3.352-17.859h-6.472l-3.327 17.859h5e-3zm6.446-15.168 1.245 8.1548h-2.511l1.27-8.1548h-4e-3zm9.423 15.168h3.833v-9.9114l4.163 9.9114h4.036v-17.859h-3.834v9.7305l-4.213-9.7305h-3.985v17.859zm15.725 0h9.491l2.436-2.4843v-12.891l-2.436-2.4843h-9.491v17.859zm4.34-3.4703v-10.923h2.563l0.684 0.6975v9.5239l-0.684 0.6975h-2.563v0.0043zm11.112 3.4703h10.001v-3.6511h-5.657v-3.6511h5.049v-3.6511h-5.049v-3.2593h5.606v-3.6511h-9.946v17.859l-4e-3 0.0043zm13.395 0h4.34v-6.8329h1.727l1.98 6.8329h4.415l-2.258-7.4012 1.954-1.9935v-6.0321l-2.385-2.4326h-9.769v17.859h-4e-3zm4.34-10.066v-4.5811h2.841l0.633 0.62v3.3368l-0.633 0.62h-2.841v0.0043zm11.061 10.066h9.617l2.334-2.381v-4.8136l-1.904-1.9159 1.879-1.916v-4.452l-2.309-2.3809h-9.617v17.859zm4.314-3.311v-4.1419h2.715l0.582 0.5942v2.9493l-0.582 0.5941h-2.715v0.0043zm0-7.4012v-3.8578h2.689l0.608 0.62v2.6393l-0.582 0.5942h-2.715v0.0043zm10.504 10.716h8.933v-3.2076h-2.31v-11.44h2.31v-3.2076h-8.933v3.2076h2.309v11.44h-2.309v3.2076zm12.116 0h9.059v-3.7286h-4.719v-14.131h-4.34v17.859zm13.387 0h4.314v-14.028h3.656v-3.8319h-11.622v3.8319h3.656v14.028h-4e-3z" fill="#fff"/> <path d="m51.576 0v0.68889c5.0828 2.889 5.3066 6.7425 2.8327 12.107l-11.107 24.077-11.107-24.077c-2.4738-5.3647-2.2501-9.2182 2.8328-12.107v-0.68889h-35.027v0.68889c3.4618 2.3853 5.3066 4.5854 8.6333 11.784l22.843 49.527h23.65l22.843-49.527c3.3267-7.1989 5.1716-9.399 8.6333-11.784v-0.68889h-35.027zm23.067 11.784-21.628 46.866h-19.424l-21.632-46.866c-1.7984-3.9439-3.1915-6.3292-4.8126-8.4389h21.404c-1.7098 2.3853-1.752 5.7307 0.629 10.867l14.117 30.634 14.117-30.634c2.381-5.1365 2.3388-8.4862 0.629-10.867h21.404c-1.6169 2.1097-3.0142 4.495-4.8127 8.4389h0.0085z" fill="#fff"/> <path d="m74.639 11.784-21.628 46.866h-19.424l-21.628-46.866c-1.7984-3.9439-3.1916-6.3292-4.8127-8.4389h21.404c-1.7098 2.3853-1.752 5.7307 0.629 10.867l14.117 30.634 14.117-30.634c2.381-5.1365 2.3388-8.4862 0.629-10.867h21.404c-1.6169 2.1097-3.0143 4.495-4.8127 8.4389h0.0042z" fill="#CFAF72"/> <path d="m95.228 39.689h10.444l1.731 1.7653v2.7771l-1.448 1.4768 1.503 1.5156v3.1172l-1.769 1.7825h-10.461v-12.434zm8.9072 5.1193 0.794-0.8094v-1.8385l-0.726-0.7578h-6.5224v3.4057h6.4544zm0.123 5.5671 0.726-0.7578v-2.1613l-0.903-0.9214h-6.3962v3.8405h6.5732z" fill="#fff"/> <path d="m110.6 49.962v-8.1117l2.119-2.1614h8.376l2.119 2.1614v8.1117l-2.119 2.1614h-8.376l-2.119-2.1614zm9.085 0.3444 1.076-1.0979v-6.5961l-1.076-1.0979h-5.547l-1.077 1.0979v6.5961l1.077 1.0979h5.547z" fill="#fff"/> <path d="m126.45 49.962v-8.1117l2.119-2.1614h8.376l2.119 2.1614v8.1117l-2.119 2.1614h-8.376l-2.119-2.1614zm9.085 0.3444 1.077-1.0979v-6.5961l-1.077-1.0979h-5.547l-1.077 1.0979v6.5961l1.077 1.0979h5.547z" fill="#fff"/> <path d="m148.05 46.444-3.022 2.9579v2.7212h-2.457v-12.434h2.457v7.0095l7.033-7.0095h3.006l-5.231 5.1365 5.497 7.298h-2.968l-4.31-5.6791h-5e-3z" fill="#fff"/> <path d="m157.18 50.319v-1.7308h2.457v1.0462l0.688 0.7019h5.779l0.76-0.775v-2.2174l-0.565-0.5769h-7.439l-1.642-1.6749v-3.4617l1.908-1.9461h8.376l1.769 1.804v1.6921h-2.457v-1.029l-0.688-0.7018h-5.691l-0.743 0.775v2.1097l0.549 0.5597h7.459l1.626 1.6749v3.6037l-1.892 1.9462h-8.481l-1.769-1.8041-4e-3 0.0043z" fill="#fff"/> <path d="m176.33 41.596h-4.825v-1.9117h12.086v1.9117h-4.804v10.527h-2.457v-10.527z" fill="#fff"/> <path d="m185.86 49.962v-8.1117l2.12-2.1614h8.375l2.12 2.1614v8.1117l-2.12 2.1614h-8.375l-2.12-2.1614zm9.085 0.3444 1.077-1.0979v-6.5961l-1.077-1.0979h-5.547l-1.076 1.0979v6.5961l1.076 1.0979h5.547z" fill="#fff"/> <path d="m202.02 39.689h10.267l1.891 1.9461v3.2636l-1.836 1.8945 2.14 5.3346h-2.579l-1.908-4.9213h-5.514v4.9213h-2.457v-12.434l-4e-3 -0.0043zm8.713 5.7307 0.988-0.9903v-2.1269l-0.882-0.8999h-6.362v4.0171h6.256z" fill="#fff"/> <path d="m217.62 39.689h10.428v1.804h-7.971v3.4789h7.35v1.8041h-7.35v3.552h7.987v1.8041h-10.444v-12.443z" fill="#fff"/>
</svg>