<svg xmlns="http://www.w3.org/2000/svg" width="132" height="27" fill="none" xmlns:v="https://vecta.io/nano"><path d="M2.984 20.887c.799-.18 3.394-1.059 5.793-1.884 2.375-.866 4.312-1.421 4.259-1.222.011.217 1.403.09 3.091-.211 2.511-.44 2.916-.615 2.093-.872-.516-.207-1.727-.353-2.673-.425-.963-.008-1.451-.172-1.156-.343.846-.488 3.886-.107 4.625.59.643.529 5.741.564 5.424.015-.244-.423-4.694-2.852-5.33-2.879-.375-.065-.363-.241.017-.46s1.927.406 3.631 1.5c2.547 1.676 3.28 1.871 5.384 1.611 4.229-.587 8.857-1.462 8.969-1.75.036-.134-2.17-1.221-4.86-2.364s-4.852-2.255-4.799-2.454c.087-.332 8.249 3.159 10.113 4.333 1.273.838 6.44.215 5.904-.712-.341-.59-9.268-4.821-10.454-4.923-.309-.045-.516-.207-.462-.406.12-.574 1.146-.266 6.084 1.939 2.672 1.212 5.071 2.634 5.388 3.182.39.675 1.191.886 2.907.737 1.308-.082 2.348-.232 2.299-.317-.364-.631-10.465-6.603-10.53-6.225-.098.225-.274.213-.419-.04-.973-1.685 1.021-.871 6.331 2.47 5.7 3.621 6.241 3.872 8.637 3.722 1.416-.086 2.699-.208 2.782-.256.127-.073-1.139-.803-2.808-1.639-4.096-2.019-8.844-5.066-8.718-5.53.054-.199 1.498.54 3.202 1.635 1.771 1.114 4.733 2.829 6.674 3.845 3.02 1.517 4.103 1.733 7.818 1.725 2.361-.013 4.207-.237 4.061-.49-.657-1.139-15.332-9.073-15.646-8.441-.136.247-.38.219-.502.008-.146-.252-.014-.61.324-.806.889-.513 16.977 8.405 16.745 9.27-.074.266 1.229.469 2.893.521s3.037-.012 3.057-.078c.034-.133-.898-.773-2.033-1.468s-3.983-2.702-6.293-4.457-4.477-3.258-4.811-3.347a2.19 2.19 0 0 1-.988-.834c-.681-1.18.836-.314 5.522 3.218 8.552 6.412 9.498 6.88 13.281 6.887 1.926.011 3.542-.021 3.627-.071s-1.663-1.118-3.882-2.424c-2.194-1.262-5.313-3.339-6.87-4.573-1.626-1.253-3.245-2.396-3.628-2.57-.49-.167-.586-.335-.206-.554.253-.146 1.267.337 2.206 1.086 3.028 2.408 9.576 6.722 12.005 7.902 1.436.631 4.138 1.208 6.815 1.349l4.557.179c.127-.073-1.582-1.278-3.79-2.755-2.181-1.437-5.9-4.069-8.302-5.883-2.379-1.773-4.471-3.152-4.683-3.03-.168.097-.557-.183-.825-.647-.949-1.644.259-1.218 3.171 1.092 6.035 4.888 16.422 11.649 17.73 11.567a13.76 13.76 0 0 1 2.747.269c.819.146 1.496.15 1.549-.052s-1.778-1.615-4.058-3.219-5.118-3.789-6.254-4.874C88.543 4.99 87.452 4.27 87.33 4.454c-.095.223-.334-.089-.499-.667-.292-.9-.36-.916-.448-.191-.047.701-.32.521-1.074-.785-1.313-2.275-.435-1.827 3.899 1.964a122.76 122.76 0 0 0 8.293 6.452c4.45 3.219 4.65 3.272 8.961 3.706 5.056.451 6.679.527 6.106.127-.223-.094-3.833-2.734-8.009-5.771-4.205-3.079-7.729-5.373-7.824-5.15-.139.249-.502.008-.817-.538-1.095-1.896 1.438-.435 9.778 5.705 6.308 4.675 8.847 6.242 10.349 6.498 1.15.236 2.204.301 2.414.18s.963.003 1.722.242c1.137.412.86.122-1.197-1.387-3.494-2.534-14.079-11.202-15.087-12.362-1.848-2.025.675-.39 4.753 3.157 2.349 2.014 6.546 5.379 9.247 7.417 4.298 3.248 5.293 3.801 7.74 4.129 1.521.191 3.049.205 3.388.009.38-.22.623-.192.525.033-.03.241.536.533 1.286.663s1.2.317 1.014.483c-.212.122-.933.147-1.574.009-.668-.178-2.247.115-3.528.632-5.132 1.953-27.931 7.586-28.835 7.095-.63-.309-.63-.309 2.357-.801 3.398-.557 26.372-6.573 26.483-6.973.033-.133-.504-.383-1.213-.536s-1.162-.061-1.017.192c.171.296.08.627-.132.75-.254.146-.619-.093-.862-.513-.438-.76-6.093-1.765-6.739-1.224-.144.138-.657.325-1.069.394-.435.028-5.05 1.511-10.237 3.268-10.224 3.488-14.528 4.623-14.845 4.075-.122-.211.755-.549 1.922-.773 2.704-.493 22.008-6.805 22.158-7.232.012-.175-.061-.302-.195-.337-2.712-.399-4.747-.406-5.882-.032l-2.383.757c-8.539 2.793-27.104 7.555-28.211 7.298-.824-.256-.871-.339-.279-.681.38-.219.857-.271 1.089-.066.345.306 25.624-6.309 25.794-6.799.165-.49-3.468-1.708-5.709-1.874-1.997-.139-3.829.301-9.693 2.45-7.81 2.881-14.016 4.832-16.397 5.197-2.36.408-1.568-.273 1.129-.875 2.673-.643 20.812-6.733 20.926-7.025.141-.531-7.616-.491-8.07-.006-.242.363-.67.5-.851.378-.251-.137-1.325.147-2.397.542-2.201.875-19.399 6.93-20.475 7.215-.412.069-.678-.004-.624-.203s4.335-1.771 9.48-3.505c13.566-4.631 13.204-4.477 12.108-4.912-.516-.207-2.228-.342-3.846-.308-2.402.037-4.615.7-14.643 4.521-13.474 5.083-14.074 5.316-13.949 4.852.066-.375 14.715-5.967 20.398-7.844 1.8-.59 3.342-1.143 3.335-1.252.02-.067-2.499-.131-5.561-.163l-5.616.041-7.86 3.188c-12.488 5.132-15.463 6.231-15.681 5.852-.122-.211.168-.492.622-.582 1.573-.403 20.493-8.067 20.542-8.377.078-.158-.431-.256-1.067-.284-.652.04-1.084.176-1.035.261.073.126-.821.137-1.986.078-1.186-.102-2.679.142-3.315.509s-3.135 1.305-5.579 2.153c-2.465.805-6.488 2.341-8.958 3.43l-6.407 2.576c-1.779.632-1.803.591-.557-.183 2.107-1.33 11.677-5.169 16.272-6.584 2.297-.708 4.395-1.469 4.62-1.767.204-.231-.28-.288-1.052-.066-.843.205-1.622.318-1.846.224s-1.647-.118-3.105-.004c-2.394.146-3.507.565-8.79 3.333-6.488 3.409-14.457 6.605-15.571 6.235-.468-.125-.366-.239.325-.411 2.329-.558 10.544-4.009 14.954-6.329l4.776-2.476-2.415.212c-1.325.147-5.187.689-8.585 1.246-5.525.885-6.491 1.164-9.318 2.907-2.936 1.75-13.653 6.141-14.495 5.954-.599-.159.462-.662 6.388-2.901 3.06-1.148 6.619-2.698 7.865-3.472l2.301-1.383-4.331.309c-4.594.348-5.348.505-4.422 1.035.407.215.219.379-.597.626-.647.151-3.416 1.409-6.111 2.796-2.718 1.346-5.131 2.344-5.447 2.19-.431-.256 5.3-3.228 8.213-4.237.792-.289 1.208-.642 1.062-.895-.39-.675-3.464-.137-8.002 1.473-4.027 1.425-6.817 1.967-4.972.96.459-.279 1.51-.604 2.35-.807zm11.015-1.921c.122.211.583.227.965.006.633-.366.626-.475-.117-.496-1.096-.041-1.14-.015-.848.49zm90.035-3.26c.479.734 1.631.968 3.161.59 1.808-.481 1.673-.516-1.139-.802-2.242-.169-2.266-.21-2.022.212z" fill="#79614e"/></svg>