<svg xmlns="http://www.w3.org/2000/svg" width="501" height="193" fill="none" xmlns:v="https://vecta.io/nano"><path d="M117.141 191.855c1.852-.863 2.894-3.108 3.762-4.835 1.679-3.453 2.489-7.368 3.242-11.167.173-.863-.174-1.726.231-2.59.405-.978.347-2.072.521-3.108.347-2.13.058-4.202 0-6.332-.116-3.626.289-7.31-.81-10.879-2.721-8.749-4.457-18.707-13.255-23.657-3.936-2.245-7.409-1.151-8.277-2.59-1.389-2.418-3.01-4.663-5.556-6.044-.116-.058-.174-.288-.347-.576 10.592-2.187 19.738-5.468 35.365-11.857 12.445-5.065 21.011-10.764 30.677-15.944 8.856-4.778 5.672-1.612 20.837-8.922 2.199-1.094 4.457-2.13 6.888-2.705.347.633-1.679 2.82-1.447 5.411.058.691-.463.978-.926 1.094-2.721.691-10.072 6.217-11.692 14.39-1.274 6.332-1.794 13.296-.463 19.57 1.852 8.807 8.798 20.204 8.855 20.319 3.126 6.159 6.367 8.577 8.625 11.57 1.62 2.245 4.456 2.59 7.003 1.381 1.1-.518 1.91-1.381 2.778-2.129 10.593-9.095 14.123-36.033 13.95-40.005-.058-2.13-.348-4.259-.348-6.331 0-1.9-.752-3.857-3.357-9.786-.694-1.554-1.331-3.166-2.662-4.375-6.483-6.159-8.046-4.375-8.335-6.217-.347-2.245-1.563-4.029-3.183-5.583-.29-.288-.753-.345-.753-1.036 35.191-3.626 83.117 26.535 104.474 32.579-5.788 3.626-3.993 5.526-6.309 4.835-3.82-1.151-7.466-.691-10.997 1.094-3.878 1.899-9.492 7.195-11.634 10.879-3.067 5.18-5.904 10.476-7.119 16.462-.868 4.144-1.91 8.231-1.794 12.548.058 2.245.926 11.857 1.852 13.757 1.447 2.935 4.167 4.432 6.598 6.274.347.288.811.23 1.216.288 5.903.691 10.823-1.842 18.695-6.562 5.209-3.108 10.187-7.771 15.049-15.657 5.325-8.634 2.836-5.871 4.457-9.152 2.141-4.432 2.083-9.785 1.157-14.562-1.678-8.462-5.44-7.541-4.456-9.498.984-2.014 1.447-4.087.636-6.332-.173-.402-.115-.92-.173-1.381-.29-2.36-.869-1.784 9.55-.633 27.146 2.993 10.245 2.014 45.957 1.496 4.11-.057 18.117-1.266 21.937-2.129l5.788-1.324c-2.315 8.231 1.852 7.483-2.026 9.555-4.688 2.532-8.393 11.454-6.598 20.894 1.968 10.188 10.129 18.938 12.791 22.276 7.235 8.98 19.043 12.318 20.837 13.987.695.633 4.746.403 6.772-2.302 3.473-4.778 3.531-11.224 3.762-12.894.753-6.389.521-3.799-.115-17.44-.406-8.232-3.705-22.219-10.419-26.421-2.778-1.726-7.177-4.202-10.418-4.202-2.2 0-.406-1.841-5.557-5.525-.347-.231-.752-.346-.926-.864 1.505-.575 2.663-1.727 4.052-2.475 10.36-5.583 19.158-14.735 21.473-16.635 15.628-12.951 24.715-26.881 51.167-47.142 5.556-4.26 8.624-5.986 9.839-6.907 3.531-2.705 7.988-3.972 11.287-6.907 2.373-2.13-.521-4.547-2.489-4.202-4.862.748-4.457 1.612-15.049 7.943-3.762 2.245-7.119 5.008-10.765 7.483-5.962 4.029-10.94 8.979-16.033 13.93-.926-1.439.868-2.13-1.39-6.044-.231-.403-.405-.921-.694-1.209-1.794-1.784.752-3.454.81-6.447.058-2.878-.463-5.641-1.157-8.404-1.158-4.893-3.878-9.037-7.467-12.491-3.82-3.684-10.824-8.749-19.043-12.491-8.624-3.914-18.406-8.807-24.657-6.274-2.315.921-4.341 2.82-4.167 5.18.289 3.741 1.447 9.843 2.026 11.627 2.604 7.598 7.293 21.988 15.107 28.78 2.315 2.015 4.341 4.317 7.408 5.296.174.058.29.173.463.288 6.657 4.029 7.351 2.59 14.702 3.511 3.878.518 3.299-1.784 7.061.576 5.962 3.684 7.12.863 7.409 2.072-.231.345-14.065 13.872-15.628 15.254-20.258 17.614-26.22 33.615-61.295 36.148-20.143 1.439-10.129 1.151-19.969.518.058-.921 2.894-2.59 4.11-5.411 1.562-3.511 4.804-.46 10.765-4.547 8.567-5.814 12.097-13.93 14.876-23.485 3.067-10.418 1.678-9.382 2.836-16.117 1.157-6.677-1.274-13.412-3.126-18.534-.81-2.245-3.473-5.929-5.788-5.526-5.151.921-7.524 3.396-12.676 6.85-9.608 6.389-17.017 14.908-18.811 18.247-5.556 9.9-5.556 12.491-6.888 17.326-.578 2.072-1.099 4.202-.694 6.447.463 2.59 0 5.583 2.952 8.864 2.026 2.187 4.63 3.856 4.572 6.735-.058 3.223-1.099 5.756 1.158 8.634.521.633.174 1.093-.81 1.151-9.319.46-19.217-.576-28.362-2.418-6.54-1.324-10.534-.633-24.657-5.525-1.852-.634-3.704-1.497-5.614-2.13-2.663-.921-5.441-1.669-7.93-3.051-3.82-2.13-8.393-3.684-12.849-6.274 4.688-4.605 5.209-5.641 6.193-8.634.984-3.108-1.158-2.936.347-4.029 15.686-11.339 4.862-36.263-8.103-50.596-7.756-8.577-7.525-6.562-10.824-8.577-2.952-1.784-8.277-.23-10.013 2.821-1.274 2.245-2.605 4.432-3.531 6.907-3.357 9.325-4.341 21.7-1.736 35.918 1.331 7.253 4.514 11.224 10.476 15.138.579.403 1.216.748 1.968.806 2.142.173 4.225.576 6.367.23 1.794-.23 1.157.633 1.852 2.418 1.331 3.454 3.878 4.029 4.978 6.907-1.679-.978-3.126-1.554-4.283-2.475-2.084-1.727-6.541-2.533-8.914-4.202-2.489-1.784-12.271-4.605-15.338-5.065-9.666-1.439-15.57-6.044-35.307-3.741-8.104.921-11.577.518-25.178 5.641-3.01 1.151-5.788 2.82-8.74 4.202-9.088 4.26-13.255 7.713-14.702 7.368.521-1.899 1.1-3.742 1.273-5.641.058-.576.521-.863 1.042-1.036 3.473-1.151 9.898-7.368 12.502-17.441 1.679-6.504 1.042-18.65-5.325-30.91-5.267-10.188-8.334-15.771-15.917-16.98-1.157-.173-2.257-.058-3.241.46-1.91 1.094-3.704 2.302-4.862 4.259s-1.91.748-5.094 8.116c-1.273 2.993-1.678 6.216-2.778 9.267-.579 1.612-.868 3.281-1.273 4.95-2.373 9.152-7.93 18.189 1.678 32.004 2.316 3.338 5.615 5.353 9.261 6.85 1.447-.288 1.447.863 1.621 1.727.289 1.381.926 2.648 1.447 3.972.984 2.475 3.299 3.108 4.399 3.511-1.042.633-1.852 1.209-2.778 1.612-26.452 11.455-39.533 17.901-59.212 19.801-22.284 2.072-40.806-7.598-44.047-8.461 1.389-.691 1.621.287 3.415-.806 1.91-1.209 3.878-4.202 4.225-6.39.116-.748.579-.921 1.273-.863 9.319.403 12.444-5.814 15.223-11.052 8.74-16.405 4.457-40.925-.752-50.653-1.042-1.899-2.489-3.338-4.688-3.741-3.82-.691-6.367.057-8.451 1.554-3.589 2.59-8.219 5.929-10.534 9.382-8.161 12.03-7.698 11.397-10.129 15.887-3.994 7.368-3.357 9.555-3.994 13.412-.289 1.842-.579 3.741-.289 5.641.926 5.583 3.762 10.073 8.045 13.699 2.778 2.36-.521 5.641 1.736 10.821.058.173.116.346-.116.518-.174-.057-.463-.057-.637-.172-5.093-2.533-3.531-1.267-5.672-2.303-9.898-4.662-12.849-5.583-19.274-12.145-1.736-1.842.116-1.209-2.547-3.223-4.515-3.454-6.598-7.54-10.361-11.052-2.778-2.59-4.92-5.698-7.524-8.519-2.199-2.36-4.746-4.317-6.83-6.677-3.994-4.777-8.508-8.576-13.486-11.8-3.357-2.187-6.598-4.605-9.955-6.792-3.647-2.36-7.582-4.144-11.403-6.159-.984-.518-2.026-.921-3.241-.864-1.505.058-1.852.518-1.736 1.957.116 1.669 1.273 2.59 2.547 3.396 5.267 3.396 18.116 9.843 25.525 16.232 11.981 10.246 15.454 16.98 21.647 23.139.637.633 1.273 1.381 1.736 2.302-.752.173-1.389-.173-2.026.115-6.83 2.878-5.904 6.217-8.277 5.526-19.158-5.698-33.397 21.643-33.744 42.077-.116 5.756.058 6.85 2.72 11.857.521.979 1.621.461 2.373.921 2.257 1.382 4.63 1.612 7.177 1.037 2.431-.576 2.547.23 6.83-1.612 4.804-2.072 13.313-8.001 14.76-9.44 5.267-5.123 11.634-11.973 13.776-18.937.81-2.648 1.91-5.181 1.794-8.059-.174-3.281-.81-6.447-2.894-9.094-1.042-1.266-.926-1.266-.058-2.763C-.877 92.448.454 90.261-.53 87.498c1.158.403 4.804 4.202 13.602 11.224 10.071 8.001 38.664 19.801 55.102 21.816 14.702 1.784 20.895.173 22.11.633-.116 1.266-2.72 2.763-1.1 9.037.289 1.209.232 1.669-.984 2.475-6.946 4.72-7.872 13.469-7.119 21.758.521 5.986 1.852 7.943 5.441 15.771 3.241 6.965 13.255 15.772 17.712 19.053 4.167 2.993 8.161 4.835 12.907 2.59zm194.71-52.437c-1.621 8.001-3.936 13.699-9.666 20.318-1.621 1.9-3.299 3.915-5.267 5.526-2.605 2.13-5.036 4.432-8.103 5.987-2.779 1.439-12.097 6.504-14.818 4.374-2.084-1.612-5.498-3.741-6.077-7.08-2.489-14.735-.753-17.959.463-23.772 1.447-6.85 4.862-12.721 8.624-18.477 2.084-3.166 5.325-5.181 8.393-7.253 3.067-2.014 6.424-2.129 9.897-1.784 2.026.23.753 2.015 4.168 2.59 9.203 1.612 14.065 11.109 12.386 19.571zm-5.441-25.039c-2.199.863-3.704-.691-4.283.115-.637.863 1.505.921 0 1.669-.521.231-.231.633.174.691.984.23 1.968.345 3.01.518.173.576-.927.345-.637.979.231.575.752.46 1.215.518 2.373.172 2.373.115 1.795 2.302-5.267-3.972-9.435-2.187-7.467-4.95 1.563-2.245 1.563-2.245 4.167-2.878.464-.115.464-.115 2.026 1.036zm187.649-87.377c.752-.806 1.563-.863 2.373-.978.926-.115 1.505.863 1.273 1.266-.231.345-.579.173-3.646-.288zm-2.2 1.612c-.289-.058-.636-.115-.405-.576.116-.288.405-.518.695-.345 1.099.806 2.489.633 3.704 1.094-1.331.403-2.662 0-3.994-.173zm-.231 2.072c-2.836-.288-2.952-.46-2.894-.748.058-.576.521-.403 4.167.23-.289.633-.81.576-1.273.518zm-6.309 1.554c.81-1.036 1.273-1.727 2.431-.921.579.403 1.505.115 2.315.633-1.505 1.381-3.01 0-4.746.288zm-2.084 1.209c1.274.288 2.605.115 3.878.288-1.273.115-2.604.23-3.878-.288zm1.331 2.533c-1.331-.23-2.778-.173-4.109-.576.058-.518-.637-.403 5.093-.403-.173.633-.578 1.036-.984.978zm-6.887 1.382c.868-.806 2.141-.863 4.456-.058-1.041.691-1.91.691-4.456.058zm-3.068 2.015c.637-.806 1.273-.863 4.746-.115-1.1.461-2.547.461-4.746.115zm-2.605 1.842c1.447-.921 2.894-.057 4.631-.23-1.679 1.899-3.184.23-4.631.23zm-.578 2.936c-.811-.23-1.737-.288-2.663-.461.289-.806.637-1.209 1.621-1.036 1.099.23 2.315.057 3.588.46-.752 1.094-1.505 1.324-2.546 1.036zm-5.441 1.727c.81-.978.81-.978 4.63-.518.463 1.266-2.199 1.266-4.63.518zm-2.373 2.13c.347-.633.463-1.266 1.389-.748.868.518 1.968.173 3.183.576-1.736 1.209-3.067.46-4.572.173zm-1.968 1.727c.752-.576.752-.576 1.91.173l-1.91-.173zm3.53-.23c.174 0 .29.115.464.173-.521 1.324-1.274-.173-.464-.173zm-5.209 2.821c-1.042 0-1.505-1.727 3.531-.979 0 1.151-1.042.921-3.531.979zm-1.331 1.266c.695.288 1.389 0 2.199.173-1.041 1.899-2.488.921-3.82.921.29-.921.637-1.497 1.621-1.094zm-21.532-.173c-2.546-.173-5.093.058-7.64-.403-4.746-.921-13.312-5.353-18.059-12.318-6.308-9.21-7.524-15.138-10.997-23.312-1.505-3.511-2.373-7.253-2.315-11.109.058-1.554 1.736-3.914 3.068-4.375 2.025-.633 5.788.173 11.749 1.612 2.663.633 4.689 1.439 15.223 6.735 7.93 3.972 9.955 5.411 16.38 13.354 4.168 5.18 5.267 10.361 5.267 15.196.116 9.21-7.698 14.908-12.676 14.62zm6.599-.23c2.662-1.669 5.498-2.993 7.351-5.583 0 1.612-2.026 2.13-3.589 4.547.868.46 1.505-.173 2.199-.403 0 .748-1.157.921-.694 1.554.405.518.81 0 2.084-.518 1.099 1.612-3.242 3.972-7.351.403zm10.823 3.914c.811-1.094.811-1.094 3.358-.748-.695.979-1.679 1.151-3.358.748zm-2.894 2.59c.984-1.612 2.316-.806 3.647-.921-1.042 1.612-2.315.863-3.647.921zm-2.373 2.187c.348-.691.521-1.324 1.332-.748.636.46 1.389-.23 2.315.403-1.274.576-2.373.288-3.647.345zm-.81 1.554c.752.23 1.563-.403 2.547-.173-.868 1.957-2.605 1.036-4.11 1.496.29-.978.463-1.612 1.563-1.324zm-4.515 3.972c1.042-1.669 2.721-1.151 4.168-1.324-1.274 1.669-1.274 1.669-4.168 1.324zm-3.009 2.82c1.041-1.727 2.72-.921 4.051-1.209-.81 1.151-1.678 1.382-4.051 1.209zm-1.968 2.533c-.463 0-.232-.921.173-.806 1.042.288 2.084-.345 3.415-.058-1.1 1.382-2.431.863-3.588.863zm1.273 1.554c-1.331 1.842-3.01.633-4.457 1.094.695-1.209 1.505-1.381 4.457-1.094zm-4.399 3.281c-.579-.288-1.331-.345-2.084-.461 1.042-.46 1.91-.518 3.994-.345-.521.806-.926 1.266-1.91.806zm-3.589 1.036c1.216-.115 2.258 0 3.415.23-.868.691-1.678.633-3.415-.23zm-2.662 2.705c1.158-2.015 2.662-.576 3.994-.691-.984 1.9-2.431.806-3.994.691zm-1.621 1.497c.174-.403.116-.461 2.258 0 .289.058.868-.115.868.345 0 .576-.637.345-.926.403-.348-.058-2.431-.115-2.2-.748zm-1.852 2.417c-.579-.115-.289-.748.116-.806.752 0 1.447.345 2.257.23.29-.058.637.115.637.403-.058.921-1.331.46-3.01.173zm-.231 2.705c-.753-.058-1.505-.23-2.2-.46-.521-.173.29-1.439 3.473-.633-.289.691-.695 1.094-1.273 1.094zm-67.894 11.57c-2.836-.345-9.145-1.439-11.171-3.166-6.483-5.468-6.135-8.922-6.425-13.814.058-4.432 3.762-17.844 13.313-27.514 11.171-11.282 8.219-7.425 17.537-14.102 1.332-.979 2.894-1.554 4.341-2.36.232-.115.521-.23.869-.173 3.646.748 4.051.978 5.846 4.835 1.91 4.144 1.504 9.037 1.794 10.591 1.1 6.101.231 12.088-1.216 18.016-.926 3.799-1.678 7.713-3.125 11.397-3.82 9.613-11.171 17.498-21.763 16.29zm-1.274 3.051c.232.403-.231.403-.52.403-.116 0-.232-.058-.521-.115.463-.288.926-.576 1.041-.288zm-6.945 5.641c-3.357-2.187-1.968-5.641-1.389-8.001 2.141.748 4.63.345 6.424 2.533-2.894-.403-3.53-.691-3.704-.058-.116.518.347.518 2.778 1.382-2.083.748-3.82-.864-4.051.46-.116.748.926.633 1.447.921.636.288 1.389.115 2.257.518-1.1.345-2.084 0-2.952.461-.289.115-.81.057-.752.518.115.978 3.183.518 3.588 1.036-1.273.978-2.373 1.036-3.646.23zm-87.11-28.723c-3.126-.633-6.251.115-9.377-.288-3.241-.461-9.029-5.065-11.46-11.915-1.1-3.108-1.853-10.246-1.737-11.512-1.389-17.383 2.605-25.096 4.746-30.737 1.39-3.626 5.904-6.447 9.435-4.72 3.183 1.497 5.962 3.454 8.103 6.389 3.762 5.008 9.782 10.649 14.355 23.312 1.504 4.202 3.993 9.613 1.331 18.247-2.663 8.577-14.933 11.339-15.396 11.224zm-.869 2.36c3.242-.748 6.483-.115 9.551-1.266-1.447 1.439-3.3 1.899-5.152 2.418.521 1.036 1.389.576 2.026.921-.347.633-1.852.576-1.62 1.381.173.633 1.215.115 1.736.46-.174.403-.753.345-.81.806l.752.345c0 1.324-5.151-.518-6.483-5.065zm63.148 29.126c-.058-.058.058-.23.116-.288.636-.576 1.563.921 2.489 2.302-1.621-.115-2.026-1.208-2.605-2.014zm3.299.173c1.1.287 1.1 1.496 1.91 2.014-.984-.23-.984-.23-1.91-2.014zm2.431.057c1.968-.057 1.91 1.554 2.836 2.475-2.025.173-1.968-1.439-2.836-2.475zm28.593 2.303c-1.215-.116-1.563-1.037-2.026-1.842.984.23 1.505 1.036 2.026 1.842zm1.1-1.842l1.389 1.726c-.752.116-.752.116-1.389-1.726zm-3.878 1.784c-1.273.057-1.679-.23-2.431-2.015 1.158.461 1.794 1.209 2.431 2.015zm-13.544.518c-1.042.058-1.216-.115-1.968-2.187l1.968 2.187zm.463-2.015c.984.403 1.505 1.267 2.373 1.9-1.273.345-1.273.345-2.373-1.9zm-9.319-.115c2.084-.633 2.547.979 3.473 2.13-2.026.46-2.836-.633-3.473-2.13zm4.052.115c1.042.403 1.447 1.267 2.141 2.418-1.389-.518-1.678-1.554-2.141-2.418zm7.698.058c1.042.115 1.273.288 2.257 2.072-.984-.691-1.563-1.381-2.257-2.072zm3.01 0c.81.403 1.447 1.036 2.083 2.015-1.331-.346-1.562-1.324-2.083-2.015zm2.489-.115c.926.23 1.562.806 2.141 1.957-1.215-.403-1.563-1.266-2.141-1.957zm11.228-.058c1.91-.806 2.2.921 3.3 1.612-1.795.576-2.2-.921-3.3-1.612zm3.647-.403c1.563-.057 1.91 1.267 3.01 1.67-1.332.575-1.332.575-3.01-1.67zm6.598 1.67c-1.794.172-1.794.172-3.241-1.67 1.215-.575.637-.748 3.241 1.67zm.232-2.13c1.563-.346 1.968 1.093 3.125 1.669-1.563.23-1.91.058-3.125-1.669zm4.167.863c-.116-.403-.694-.575-.752-1.093 1.099.287 1.099.287 2.489 1.726-.811.403-1.447.346-1.737-.633zm37.796 8.001c3.299 2.015 5.846 4.95 7.351 8.462 2.315 5.238 3.704 10.763 4.052 16.577.463 7.655 1.389 14.851-.464 23.715-.694 3.511-4.341 9.728-7.35 7.828-4.11-2.59-13.718-4.893-21.937-15.426-1.447-1.842-3.068-3.569-4.341-5.584-8.74-13.296-7.988-21.297-3.589-30.104.926-1.842 2.779-2.878 4.341-4.144.058-.058.232-.115.348-.115 3.82-.403 7.929-2.59 11.518-3.511 3.82-.979 6.772.288 10.071 2.302zm-16.959-9.382c-.521-.058-2.199 1.842-1.505 2.417.868.749 3.184-1.381 3.82-1.842.29-.23.753.231.405.518-3.414 2.763-4.919 2.015-4.63 2.936.174.633.753.403 1.216.23 3.935-1.036 3.878-1.784 5.382-2.187-.289 1.209-.115.863-4.398 3.281.115.576.463.576.81.46 1.505-.46 3.125-.69 4.514-1.554.406-.23.637-.115.811.288.579 1.324-2.836.518-9.724 3.914-.637-2.417-.463-4.605.521-6.734.81-1.612 1.331-1.957 2.778-1.727zm-1.157-2.533c.173.058.52 0 .463.346-.058.172-.174.287-.406.287-.636-.115-.521-.748-.057-.633zm26.451-18.074c-1.794-.115-1.91-.058-1.852-.46.115-.633.579-.46 2.894-.288-.116.691-.579.748-1.042.748zm-4.225 1.727c1.099-.576 1.91-.058 2.894-.345-.811 1.094-.811 1.094-2.894.345zm-2.084 2.475c.637-1.094.637-1.094 3.183-.576-.926 1.497-2.083.633-3.183.576zm-3.184 2.302c1.216-1.784 2.547-.863 3.936-.691-1.099 1.612-2.431.863-3.936.691zm-2.257 1.9c1.042-.748 2.142-.115 3.184-.058-.984.748-2.084.23-3.184.058zm-3.01 1.957c1.216.115 2.373-.345 3.589-.23-.579.863-.579.863-3.589.23zm-2.778 1.784h3.415c-.752.634-.752.634-3.415 0zm-3.068 1.785c1.39-.346 2.721-.115 4.284-.058-1.563 1.382-2.894.173-4.284.058zm.174 1.439c-.984 1.612-.984 1.611-3.646-.115 1.447-.633 2.488.23 3.646.115zm-5.846.978c.058-.115.058-.23.174-.287.81-.346.463.402 1.91.863.289.115.81.115.521.633-.174.288-.521.173-.753 0-2.025-1.151-1.62-.921-1.852-1.209zm-1.852 2.936c-1.505 1.094-1.91-.576-3.126-1.094 1.679-.748 1.679-.748 3.126 1.094zm-6.135-.23c1.447-1.267 2.083.345 3.009.863-1.447 1.151-1.504 1.094-3.009-.863zm-.174 1.899c-1.794 1.266-2.431 0-3.183-1.093 1.504-.864 2.083.633 3.183 1.093zm-7.119-.633c1.91-.633 2.489.691 3.588 1.266-1.736 1.094-2.257-.575-3.588-1.266zm-.984 1.094c.347.057.694.345.868.805-.521.519-.926.346-1.273-.172-.29-.518-1.39-.979-.984-1.382.694-.805.81.576 1.389.749zm-56.607 1.208c-2.084.461-2.316-1.208-2.894-2.36 1.447.288 2.025 1.439 2.894 2.36zm-5.094-2.647c.405.863 1.042 1.496 1.737 2.59-2.142-.173-2.316-1.842-3.3-2.936.695-.23 1.274-.288 1.563.346zm-2.026 1.957c-1.331-.403-1.794-1.612-2.373-2.763 1.389.403 1.794 1.669 2.373 2.763zm-5.267-3.339c.405.115 1.852 2.072 2.315 2.936-1.678.057-1.91-.115-2.952-2.821.174-.172.464-.172.637-.115zm-.926 2.648c-2.199.115-1.91-1.9-2.894-2.763.926-.173.926-.173 2.894 2.763zm-3.415-.403c-1.389-.576-1.794-1.842-2.315-3.051 1.331.518 1.794 1.842 2.315 3.051zm-2.72-.576c-2.2-.172-1.852-2.187-2.663-3.108 1.042.806 1.91 1.727 2.663 3.108zm-3.184-.978c-1.273-.115-1.273-.115-2.72-3.223 1.331.69 1.794 2.072 2.72 3.223zm-3.183-.921c-1.91-.115-1.852-.691-3.299-3.684 1.736.863 2.083 2.418 3.299 3.684zm-3.531-1.439c-2.431-.23-2.604-2.072-3.646-3.569 2.199.403 2.141 2.475 3.646 3.569zm-4.399-1.612c-1.389-.633-1.389-.633-2.546-2.935 1.157.057 1.273.172 2.546 2.935zm-3.53-1.611c-1.737-.346-2.431-1.439-2.894-3.051 1.62.575 2.083 1.842 2.894 3.051zm-5.499-3.627c.347.288.868.403 1.215.749a1.07 1.07 0 0 1 .348 1.323c-1.389-.633-2.026-1.496-2.547-2.82.752 0 .579.403.984.748zm-2.489-.173c-1.91-.691-1.91-.691-2.489-2.245 1.274.23 1.274.23 2.489 2.245zm-4.688-2.072c-1.216-.345-1.563-1.036-1.737-1.957 1.042.345 1.042.345 1.737 1.957zm-3.473-1.669c-1.563-.23-1.679-1.381-2.026-2.302.463.863 1.505 1.266 2.026 2.302zm-3.357-1.439c-1.968-.518-2.431-2.072-3.473-3.339 2.257.921 1.736.23 3.473 3.339zm-4.283-2.13c-2.373-.23-2.373-2.418-3.531-3.626l.405-.345 3.126 3.972zm-3.82-1.497c-1.274-.288-2.084-1.324-3.357-4.317.983 1.497 2.43 2.648 3.357 4.317zm-3.647-1.381c-1.852-.921-2.257-2.878-3.241-4.432 1.62 1.036 2.199 2.936 3.241 4.432zm-3.357-1.266c-1.563-1.036-2.142-2.82-3.01-4.317 1.331 1.209 2.2 2.763 3.01 4.317zm-3.299-1.554c-2.026-.576-2.373-2.533-3.357-3.972 1.968.633 2.431 2.475 3.357 3.972zm-3.705-1.266c-1.447-.863-1.967-2.475-2.894-3.799 1.39.921 2.142 2.36 2.894 3.799zm-3.125-1.151c-1.216-.345-2.373-1.9-3.126-4.029 1.563 1.266 2.142 2.82 3.126 4.029zm-3.531-.748c-1.505-.691-2.199-2.015-2.836-3.511 1.1.23 1.91 1.209 2.836 3.511zm-3.53-1.784c.289.403-.521.806-.695.345-.289-.978-1.216-1.669-1.679-2.993 1.447.633 1.737 1.784 2.374 2.648zm-3.01-.576c-1.563-.173-1.968-1.612-2.894-2.533 1.736 0 2.083 1.496 2.894 2.533zm-3.473-.748c-1.737-.058-2.084-1.669-2.952-2.763 1.389.518 1.968 1.842 2.952 2.763zm-3.647-.806c-1.447-.345-1.968-.863-3.125-2.878 1.215.173 1.215.173 3.125 2.878zm-3.704-.921c-1.042-.173-1.042-.173-2.952-2.878 1.216.691 2.2 1.612 2.952 2.878zm-5.846-1.899c-.637-.633.232-.979.637-.691.289.173 1.91 1.554 2.026 2.13-1.274.23-1.91-.691-2.663-1.439zm-4.399-.633c1.563-.518 2.084.806 2.894 1.439-1.273.23-2.083-.46-2.894-1.439zm-1.447.863c-1.157.288-1.678-.23-2.199-.863 1.042-.518 1.389.23 2.199.863zm-4.399-.345c-.926.288-1.447.115-1.794-.633.868-.173 1.273.23 1.794.633zm-3.588.288c-.811.345-1.274 0-1.737-.633.811-.288 1.274.115 1.737.633zm-5.325-.288c.578-.23.984.115 1.505.576-1.563.576-1.795-.46-1.505-.576zm-4.168.518c.811-.288 1.389-.057 1.91.345-.926.633-.926.633-1.91-.345zm-3.415.345c1.1-.115 1.621.46 2.142 1.094-.753-.173-1.447-.345-2.142-1.094zm-3.067 1.151c1.157-.518 2.025.288 3.299.633-1.505.691-2.315-.345-3.299-.633zm-50.414 2.13c-11.576-10.821-7.872-22.276-4.399-32.522 2.026-5.929 2.373-19.053 12.676-25.96 2.199-1.439 5.325-1.324 7.119.576 4.573 4.893 3.299 2.475 8.682 12.088 7.988 14.275 10.534 29.471 1.331 43.055-2.431 3.626-6.193 5.18-10.418 5.756-5.615.748-10.419 1.209-14.991-2.993zM-54.475 38.054c.752 0 .752.691 1.042.978a1.73 1.73 0 0 1-1.042-.978zm4.052 2.82c.695 0 .637.576.868.921-.405-.173-.81-.403-.868-.921zm2.605.576c.868.691 1.1 1.727 1.794 2.245-1.273-.115-1.563-1.036-1.794-2.245zm2.836.345c1.447 1.381 2.373 2.705 3.01 4.202-1.563-.403-1.91-.863-3.01-4.202zm4.167 2.648c.405 0 .521.403.695.633.752 1.151 1.678 2.302 2.315 3.741-1.679-1.151-2.084-1.727-3.01-4.375zm3.82 2.59c1.736.864 2.257 2.187 2.836 3.799-1.968-.633-2.142-2.245-2.836-3.799zm4.225 2.648c1.273 1.094 1.794 2.245 2.257 3.511-1.505-.748-1.736-1.094-2.257-3.511zm3.82 2.821c.868.978 1.331 2.187 1.621 3.396-1.158-.806-1.331-2.13-1.621-3.396zm3.126 2.187c1.215 1.036 1.331 2.533 1.794 3.914-1.215-1.036-1.216-2.59-1.794-3.914zm3.183 2.59c1.158.633.868.23 1.736 3.799-.926-1.036-1.331-2.36-1.736-3.799zm3.068 2.648c1.794 1.496 1.273 3.454 1.91 4.95-1.563-1.209-1.563-2.993-1.91-4.95zm3.589 3.856l1.273 4.547c-.926-.806-1.505-2.59-1.273-4.547zm2.662 2.993c.463 1.554 1.216 2.993 1.158 4.605-.579-1.439-1.158-2.936-1.158-4.605zm2.373 1.899c.637 2.015 1.679 3.914 1.736 6.102-.695-1.957-1.563-3.972-1.736-6.102zm2.547 2.763c2.199 1.094.926 1.094 2.72 7.253-1.91-2.015-1.679-4.72-2.72-7.253zm3.936 4.547c1.563 2.015 1.621 4.547 2.257 6.907-1.331-2.13-1.621-4.547-2.257-6.907zm3.994 7.022c-.405-.921-.521-2.015-.752-3.108.752.863 1.794 4.202 1.91 5.929-1.447-.46-.752-1.899-1.158-2.82zM-4.524 98.32c2.142 2.417 2.662 5.468 2.778 8.576.463 10.418-13.313 25.73-22.516 30.737-6.656 3.627-15.338 8.347-20.027 2.763-6.714-8.058 1.678-44.264 20.837-50.308 4.167-1.324 9.782-.46 10.419.173 2.778 2.533 2.257.921 8.508 8.058zm.058-10.534c.868.748 1.389 1.784 2.026 2.705.174.288.405.576 0 1.094-1.563-2.187-1.794-2.648-3.183-3.684-.289-.173-.579-.518-.926-.173-.521.576.116 1.266.637 1.784 1.042 1.036 1.679 2.36 2.431 3.626-1.215-.748-1.794-2.072-2.778-2.993-.405-.345-.752-1.209-1.389-.633-.637.518.058 1.036.405 1.497 2.547 3.396 2.315 2.936 2.026 3.108-5.904-5.18-6.541-5.18-5.383-6.217 1.273-1.151 2.663-2.13 4.283-2.82 1.273-.518 2.142-.115 3.241 1.381-.058.058-.174.173-.232.115-.463-.115-.868-.863-1.331-.173-.579.46-.289.979.174 1.382zm6.251-5.065c1.273 1.784 1.447 3.914 2.084 5.929-1.273-1.727-1.563-3.856-2.084-5.929zm3.473 4.087c.347.576.637 1.094.405 2.072-.174-.864-.695-1.324-.405-2.072zm.984 3.223c.405.46.637.806.521 1.439-.637-.288-.637-.748-.521-1.439zm80.628 27.802l3.588 1.439c-1.505.345-1.505.345-3.588-1.439zm-.926 1.726c-.926-.057-1.273-.345-1.679-.863.752-.058 1.1.403 1.679.863zm4.63-1.957c1.273-.172 2.2.691 3.415.979-.868.575-.868.575-3.415-.979zm3.589-.633c1.621-.46 2.373.691 3.531 1.036-1.216.691-1.216.691-3.531-1.036zm120.681-7.54c.058 4.259-.636 7.022-.81 9.843-.579 9.497-5.962 29.125-14.586 33.269-1.968.921-2.894.634-4.515-.863-5.556-5.123-6.887-7.195-10.476-13.642-6.483-11.627-9.145-20.837-6.772-35.054.637-3.569 2.2-6.85 4.63-9.555.811-.921 2.084-2.648 3.126-3.223 1.621-.921 3.647-.173 5.325-.806 14.007-5.468 23.905 6.907 24.078 20.031zm-14.354-23.543c-6.772 0-3.241.173-.637-.978.521-.288.521.345.637.978zm-5.094-5.641c-.405 1.209-2.431 1.151-2.257 1.957.116.518.695.403 1.042.345 2.547-.345 3.01-1.612 3.704-1.209-.347.806-.984.921-3.357 1.899-.579.23-.521 1.036.29.863 4.283-.691 3.704-1.612 4.572-1.036-1.042 1.036-2.373 1.209-3.53 1.784-.29.173-1.505.115-.521 1.036.289.288-.637.403-4.341 1.151-.406-2.36.405-4.375 1.678-6.159.637-.863 1.736-.691 2.72-.633zm-12.849-.46c1.1-.058 2.084.46 3.126.691-1.274.748-2.084-.288-3.126-.691zm.521 1.842c-.753 1.151-.695.864-3.82-.576 1.389-.46 2.489.23 3.82.576zm-3.241 1.439c-1.1.863-1.737.748-3.936-.806 1.215-.691 1.505-.633 3.936.806zm-6.888.921c1.447-1.439 2.489.058 3.878.288-1.563 1.784-2.663.058-3.878-.288zm-2.315 1.612c-.174-.057-.29-.23-.232-.403.174-.576.695-.23 3.068.748-1.1.46-1.91 0-2.836-.345zm-2.316.979c-.115-.058-.057-.173.232-.288l1.91.691c-.81.23-1.447-.115-2.142-.403zm-2.373.806l1.968.518c-.926.518-1.447-.058-1.968-.518zm-3.009 1.727c.694-.921 1.331-.518 1.967-.058-.868.518-.868.518-1.967.058zm-1.853 1.497c-.173-.058-.347-.115-.289-.345.174-.576 1.1-.115 1.331.403-.579.23-.81 0-1.042-.058zm-3.357 1.209c.637-.806 1.332-.46 2.084-.115-.868.691-.868.691-2.084.115zm-12.502-.633c-.752-1.209-1.042-2.59-1.621-3.857 2.779-.345 5.383-.979 8.393-.979-2.026 2.072-4.978.921-4.92 2.187.058.978 1.216.633 4.399.23-1.505 1.497-4.572.921-4.167 2.187.231.748 2.836.115 3.357.115-.29.748-2.026.288-1.389 1.784.231.518-2.663.518-4.052-1.669zm9.203 2.302c1.158-.806 1.852-.345 2.72 0-.983 1.094-1.678.173-2.72 0zm-1.736 1.554c.058-.058.115-.23.173-.23.405 0 .811-.115 1.1.23.058.058 0 .23-.116.288-.463.403-.81 0-1.157-.288zm-4.226 1.324c1.042-.691 2.026-.173 3.126 0-1.158 1.266-2.142.23-3.126 0zm-2.373 1.382c.869-.345 1.563.173 2.373.345-.636.461-.636.461-2.373-.345zm-2.778 1.324c.868-.115 1.736.058 2.605.518-1.216.921-1.795-.173-2.605-.518zm-3.068 1.151c.984.461 2.084.173 2.952.806-1.099.691-1.563.575-2.952-.806zm.406 2.187c-.927.346-1.447.115-1.911-.345.695-.345 1.158.115 1.911.345zm-5.21 1.094c-.347-.173-1.157 0-.984-.691s.984-.288 3.763.633c-1.042 1.094-1.911.461-2.779.058zm-4.283.748c1.331-.23 2.489.346 3.704.806-1.504.921-2.546-.173-3.704-.806zm.521 2.188c-1.447 1.036-2.315-.403-3.415-.749 1.216-.172 2.315.288 3.415.749zm-2.952 1.151c-1.042.863-1.389.748-3.415-1.151 1.331.115 2.315.633 3.415 1.151zm-6.425.518c1.39-.518 2.547.173 4.052.691-1.736.978-2.836-.346-4.052-.691zm-2.778 1.381c1.447-.115 1.447-.115 2.894.633-1.273.518-1.794.403-2.894-.633zm-3.357 1.497c1.158-.23 1.158-.23 2.836.288-1.157 1.151-1.91-.288-2.836-.288zm-.116 1.727c-1.505 1.036-2.141-.346-3.009-.749 1.099-.23 1.967.288 3.009.749zm-3.183 1.093c-.984.518-.984.518-2.489-.806.984-.115 1.679.461 2.489.806zm-2.778.979c-1.158.748-1.505.633-3.242-1.094 1.505-.288 2.2.691 3.242 1.094zm-6.136.057c1.389-.633 2.026.403 2.952.864-1.273.806-1.273.806-2.952-.864zm-5.961 1.209c1.273.058 2.083.518 2.894 1.151-.463.691-.984.461-1.505.115-.405-.287-1.042-.402-1.389-1.266zM37.845 93.6c-1.678-.806-3.126-2.13-4.283-3.684-3.531-4.72-5.672-8.576-4.688-14.505 1.852-11.224 2.257-11.627 13.891-29.241 2.026-3.051 6.772-6.447 8.74-8.058 2.778-2.302 6.135-2.936 9.608-1.382 5.499 2.475 7.467 22.852 7.698 28.838.174 5.411-.868 10.706-2.2 15.887-.521 2.13-1.678 4.029-2.605 5.986-1.505 3.223-4.109 5.411-6.772 7.54-4.515 3.799-13.949 1.266-19.39-1.382zm1.389 11.454c-1.794-2.245-1.563-5.526-1.042-8.404 1.563.633 3.01 1.036 4.225 2.015 2.894 2.245 5.151.23 4.92 1.784-.232 1.497-2.315.115-5.904-1.093-.579-.173-1.042.345-.405.921.637.633.868.633 4.978 2.417-1.1.461-1.91-.115-2.836-.345-.868-.23-1.505-1.267-2.663-.748.695 2.014 2.315 1.554 3.299 2.935-1.852.288-3.184-1.209-5.036-.921.81 1.094 2.084 1.497 2.894 2.36-1.042.23-1.736-.057-2.431-.921zM8.731 91.988c.695.461.637 1.209.81 1.842-.81-.345-.463-1.266-.81-1.842zm2.662 1.727c1.621.576 1.331 2.302 2.142 3.281-1.447-.633-1.91-1.842-2.142-3.281zm3.936 3.569c1.042.576 1.505 1.209 2.084 2.705-1.505-.23-1.331-1.727-2.084-2.705zm4.11 2.36c1.042.403 1.678 1.152 2.315 2.878-1.216-.345-1.216-.345-2.315-2.878zm3.704 1.958c1.158.575 1.273.748 1.679 2.762l-1.679-2.762zm3.415 1.554c1.389.633 1.447.69 2.084 2.763-1.1-.864-1.331-1.9-2.084-2.763zm4.052 1.611c.637.576.868 1.439 1.042 2.303-1.679-2.418-1.563-1.957-1.042-2.303zm2.778 1.209c2.257.23 2.547 2.13 3.762 3.396-2.199-.23-2.778-1.842-3.762-3.396zm5.962 4.26c-.463-.461-.81-1.324-1.042-1.9.405 0 .81.633 1.215.518.058.806.984 1.151 1.042 1.957l-1.215-.575zm2.836-.346c.81.288.984.748.984 1.497-.579-.403-.81-.806-.984-1.497zm3.01 1.209c1.215.518 1.331 1.439 1.736 2.13-1.158-.173-1.215-1.094-1.736-2.13zm3.647 1.554c1.447.115 1.621 1.382 2.547 2.187-1.563-.115-2.199-.921-2.547-2.187zm4.341 1.554c1.215-.057 1.158 1.094 1.678 1.669-.868-.287-1.1-1.151-1.678-1.669zm4.688 1.612c.637.23.926.691 1.331 1.266-1.158-.345-1.158-.345-1.331-1.266zm2.836.23c1.389.288 1.736 1.266 2.605 2.13-1.563-.058-1.852-1.094-2.605-2.13zm3.589.864c.695.402 1.447.748 1.968 1.439-1.042.115-1.042.115-1.968-1.439zm3.299.748c.347-.461-.116-.633 2.72 1.439-1.563.173-1.852-.979-2.72-1.439zm3.762.46c.926-.115 1.331.058 3.01 1.324-1.447.058-1.447.058-3.01-1.324zm4.63.173l2.257 1.036c-1.042.461-1.679-.23-2.257-1.036zm4.225.288c.868.23 1.794.23 2.605.978-1.273.518-1.794-.575-2.605-.978zm10.245 8.634c.174-1.094.116-2.245.463-3.339.521-1.669 2.257-2.705 2.72-2.129.289.345-.116.575-1.447 1.784-.232.23-.637.403-.463.921 2.431.403 3.878-2.648 4.63-2.072.579.46.174.633-2.605 2.878-.347.288-.868.46-.637 1.093 2.199.116 3.473-1.496 5.383-2.647 0 1.439-1.1 1.611-1.736 2.187-.695.576-1.621.863-2.489 1.842 1.91-.115 3.357-.691 4.688-1.439 1.041-.576 1.041-.576 1.562.921-3.357.115-6.309 1.324-9.087 3.051-.868-.864-1.215-1.785-.984-3.051zm22.805 63.777c-6.193-.461-14.007-8.404-18.406-12.894-6.02-6.159-6.367-8.231-9.377-15.023-6.309-14.217-1.042-28.492 5.036-29.586 2.836-.518 4.746-3.051 7.582-3.626 2.605-.576 6.194-.749 8.625-.115 4.167 1.036 7.293 3.453 9.26 7.31 11.461 22.391 6.657 42.249 2.605 50.768-1.042 2.245-2.836 3.338-5.325 3.166z" fill="#79614e"/></svg>